{
  "accessors": [
    {
      "bufferView": 2,
      "componentType": 5126,
      "count": 9537,
      "max": [
        2.0915613174438477,
        2.0890936851501465,
        2.1235074996948242
      ],
      "min": [
        -2.0915613174438477,
        -1.14310622215271,
        -1.1553006172180176
      ],
      "type": "VEC3"
    },
    {
      "bufferView": 2,
      "byteOffset": 114444,
      "componentType": 5126,
      "count": 9537,
      "max": [
        1,
        1,
        1
      ],
      "min": [
        -1,
        -1,
        -1
      ],
      "type": "VEC3"
    },
    {
      "bufferView": 3,
      "componentType": 5126,
      "count": 9537,
      "max": [
        1,
        0.9999997615814209,
        0.99997705221176147,
        1
      ],
      "min": [
        -1,
        -0.99996185302734375,
        -0.99997705221176147,
        1
      ],
      "type": "VEC4"
    },
    {
      "bufferView": 3,
      "byteOffset": 152592,
      "componentType": 5126,
      "count": 9537,
      "max": [
        0.93333333730697632,
        0.90980392694473267,
        0.29019609093666077,
        1
      ],
      "min": [
        0.086274512112140656,
        0.7137255072593689,
        0.062745101749897003,
        1
      ],
      "type": "VEC4"
    },
    {
      "bufferView": 1,
      "componentType": 5126,
      "count": 9537,
      "max": [
        0.99246430397033691,
        0.998046875
      ],
      "min": [
        0.0019531266298145056,
        0.0019531266298145056
      ],
      "type": "VEC2"
    },
    {
      "bufferView": 0,
      "componentType": 5125,
      "count": 54144,
      "max": [
        9536
      ],
      "min": [
        0
      ],
      "type": "SCALAR"
    },
    {
      "bufferView": 2,
      "byteOffset": 228888,
      "componentType": 5126,
      "count": 118,
      "max": [
        0.41927245259284973,
        0.30973261594772339,
        0.51871448755264282
      ],
      "min": [
        -0.41927245259284973,
        -0.19912886619567871,
        -0.31983035802841187
      ],
      "type": "VEC3"
    },
    {
      "bufferView": 2,
      "byteOffset": 230304,
      "componentType": 5126,
      "count": 118,
      "max": [
        0.98078525066375732,
        1,
        0.98078590631484985
      ],
      "min": [
        -0.98078542947769165,
        -1,
        -0.9807848334312439
      ],
      "type": "VEC3"
    },
    {
      "bufferView": 3,
      "byteOffset": 305184,
      "componentType": 5126,
      "count": 118,
      "max": [
        0.98071706295013428,
        0.98266774415969849,
        0.9647030234336853,
        1
      ],
      "min": [
        -0.96733754873275757,
        -0.99298298358917236,
        -0.98253756761550903,
        1
      ],
      "type": "VEC4"
    },
    {
      "bufferView": 1,
      "byteOffset": 76296,
      "componentType": 5126,
      "count": 118,
      "max": [
        0.998046875,
        0.99609375
      ],
      "min": [
        0.0019530932186171412,
        0.0019531254656612873
      ],
      "type": "VEC2"
    },
    {
      "bufferView": 0,
      "byteOffset": 216576,
      "componentType": 5125,
      "count": 528,
      "max": [
        117
      ],
      "min": [
        0
      ],
      "type": "SCALAR"
    }
  ],
  "asset": {
    "extras": {
      "author": "luardimensi (https://sketchfab.com/luardimensi)",
      "license": "CC-BY-4.0 (http://creativecommons.org/licenses/by/4.0/)",
      "source": "https://sketchfab.com/3d-models/diamond-structure-ba09212da83a452d97f73a8eac600286",
      "title": "Diamond structure"
    },
    "generator": "Sketchfab-7.8.0",
    "version": "2.0"
  },
  "bufferViews": [
    {
      "buffer": 0,
      "byteLength": 218688,
      "byteOffset": 0,
      "name": "floatBufferViews",
      "target": 34963
    },
    {
      "buffer": 0,
      "byteLength": 77240,
      "byteOffset": 218688,
      "byteStride": 8,
      "name": "floatBufferViews",
      "target": 34962
    },
    {
      "buffer": 0,
      "byteLength": 231720,
      "byteOffset": 295928,
      "byteStride": 12,
      "name": "floatBufferViews",
      "target": 34962
    },
    {
      "buffer": 0,
      "byteLength": 307072,
      "byteOffset": 527648,
      "byteStride": 16,
      "name": "floatBufferViews",
      "target": 34962
    }
  ],
  "buffers": [
    {
      "byteLength": 834720,
      "uri": "scene.bin"
    }
  ],
  "extensionsRequired": [
    "KHR_materials_pbrSpecularGlossiness"
  ],
  "extensionsUsed": [
    "KHR_materials_pbrSpecularGlossiness"
  ],
  "images": [
    {
      "uri": "textures/diamond_emissive.jpeg"
    },
    {
      "uri": "textures/ThinRing1_diffuse.png"
    },
    {
      "uri": "textures/ThinRing1_emissive.jpeg"
    }
  ],
  "materials": [
    {
      "doubleSided": true,
      "emissiveFactor": [
        1,
        1,
        1
      ],
      "emissiveTexture": {
        "index": 0,
        "texCoord": 0
      },
      "extensions": {
        "KHR_materials_pbrSpecularGlossiness": {
          "diffuseFactor": [
            0.5,
            0.5,
            0.5,
            1
          ],
          "glossinessFactor": 0,
          "specularFactor": [
            0.050000000000000003,
            0.050000000000000003,
            0.050000000000000003
          ]
        }
      },
      "name": "diamond"
    },
    {
      "alphaMode": "BLEND",
      "doubleSided": true,
      "emissiveFactor": [
        1,
        1,
        1
      ],
      "emissiveTexture": {
        "index": 2,
        "texCoord": 0
      },
      "extensions": {
        "KHR_materials_pbrSpecularGlossiness": {
          "diffuseFactor": [
            1,
            1,
            1,
            0.72122713414634143
          ],
          "diffuseTexture": {
            "index": 1,
            "texCoord": 0
          },
          "glossinessFactor": 1,
          "specularFactor": [
            1,
            1,
            1
          ]
        }
      },
      "name": "ThinRing1"
    }
  ],
  "meshes": [
    {
      "name": "diamond_diamond_0",
      "primitives": [
        {
          "attributes": {
            "COLOR_0": 3,
            "NORMAL": 1,
            "POSITION": 0,
            "TANGENT": 2,
            "TEXCOORD_0": 4
          },
          "indices": 5,
          "material": 0,
          "mode": 4
        }
      ]
    },
    {
      "name": "ThinRing1_ThinRing1_0",
      "primitives": [
        {
          "attributes": {
            "NORMAL": 7,
            "POSITION": 6,
            "TANGENT": 8,
            "TEXCOORD_0": 9
          },
          "indices": 10,
          "material": 1,
          "mode": 4
        }
      ]
    }
  ],
  "nodes": [
    {
      "children": [
        1
      ],
      "name": "RootNode (gltf orientation matrix)",
      "rotation": [
        -0.70710678118654746,
        -0,
        -0,
        0.70710678118654757
      ]
    },
    {
      "children": [
        2
      ],
      "name": "RootNode (model correction matrix)"
    },
    {
      "children": [
        3
      ],
      "matrix": [
        1,
        0,
        0,
        0,
        0,
        0,
        1,
        0,
        0,
        -1,
        0,
        0,
        0,
        0,
        0,
        1
      ],
      "name": "2f09bec109cb414fa3ec190334db9ed2.fbx"
    },
    {
      "children": [
        4,
        6
      ],
      "name": "RootNode"
    },
    {
      "children": [
        5
      ],
      "name": "diamond"
    },
    {
      "mesh": 0,
      "name": "diamond_diamond_0"
    },
    {
      "children": [
        7
      ],
      "name": "ThinRing1"
    },
    {
      "mesh": 1,
      "name": "ThinRing1_ThinRing1_0"
    }
  ],
  "samplers": [
    {
      "magFilter": 9729,
      "minFilter": 9987,
      "wrapS": 10497,
      "wrapT": 10497
    }
  ],
  "scene": 0,
  "scenes": [
    {
      "name": "OSG_Scene",
      "nodes": [
        0
      ]
    }
  ],
  "textures": [
    {
      "sampler": 0,
      "source": 0
    },
    {
      "sampler": 0,
      "source": 1
    },
    {
      "sampler": 0,
      "source": 2
    }
  ]
}

